<svg width="47" height="46" viewBox="0 0 47 46" fill="none" xmlns="http://www.w3.org/2000/svg">
<path d="M0 2.78957C0 1.24893 1.24893 0 2.78957 0H18.6547C20.8638 0 22.6547 1.79086 22.6547 4V19.4847C22.6547 21.0487 21.3868 22.3165 19.8228 22.3165H19.527C8.74253 22.3165 0 13.574 0 2.78957V2.78957Z" fill="#FFC331"/>
<path d="M0 27.3167C0 25.1075 1.79086 23.3167 4 23.3167H18.6547C20.8638 23.3167 22.6547 25.1075 22.6547 27.3167V41.6332C22.6547 43.8423 20.8638 45.6332 18.6547 45.6332H0V27.3167Z" fill="#6C9E03"/>
<path d="M23.6543 4C23.6543 1.79086 25.4452 0 27.6543 0H42.309C44.5181 0 46.309 1.79086 46.309 4V18.3165C46.309 20.5257 44.5181 22.3165 42.309 22.3165H23.6543V4Z" fill="#6C9E03"/>
<path d="M23.6543 26.1062C23.6543 24.5656 24.9032 23.3167 26.4439 23.3167H42.309C44.5181 23.3167 46.309 25.1075 46.309 27.3167V42.8014C46.309 44.3653 45.0411 45.6332 43.4771 45.6332H43.1813C32.3968 45.6332 23.6543 36.8907 23.6543 26.1062V26.1062Z" fill="#FFC331"/>
</svg>
