<svg width="49" height="47" viewBox="0 0 49 47" fill="none" xmlns="http://www.w3.org/2000/svg">
<path d="M0 28.6548C0 26.4456 1.79086 24.6548 4 24.6548H18.6547C20.8638 24.6548 22.6547 26.4456 22.6547 28.6548V35.8131C22.6547 41.9756 17.6589 46.9713 11.4964 46.9713H0V28.6548Z" fill="#9E3203"/>
<path d="M23 17C23 19.2091 21.2091 21 19 21L4 21C1.79086 21 0 19.2091 0 17L0 0L23 0L23 17Z" fill="#9E3203"/>
<path d="M25.6547 27.4444C25.6547 25.9037 26.9036 24.6548 28.4442 24.6548H44.3094C46.5185 24.6548 48.3094 26.4456 48.3094 28.6548V46.9713H45.1817C34.3972 46.9713 25.6547 38.2288 25.6547 27.4444V27.4444Z" fill="#FFC331"/>
<path d="M28.75 22C27.2312 22 26 20.7688 26 19.25V0H45.25C46.7688 0 48 1.23122 48 2.75V2.75C48 13.3815 39.3815 22 28.75 22V22Z" fill="#FFC331"/>
</svg>
